<svg width="38" height="40" viewBox="0 0 38 40" fill="none" xmlns="http://www.w3.org/2000/svg">
<path d="M36.8099 1.27114C36.7271 1.22303 36.6332 1.19749 36.5375 1.19708C36.4418 1.19667 36.3476 1.2214 36.2644 1.26879L29.179 5.30606C29.0952 5.35383 29.0254 5.42296 28.9769 5.50642C28.9284 5.58988 28.9029 5.68469 28.9029 5.78122V21.2516C27.7019 19.7486 26.1201 18.5625 24.3047 17.8418V8.13778C24.3047 8.04205 24.2795 7.948 24.2318 7.86503C24.184 7.78206 24.1154 7.71308 24.0326 7.66497C23.9498 7.61687 23.8559 7.59134 23.7602 7.59093C23.6644 7.59051 23.5703 7.61524 23.4871 7.66262L16.4016 11.7C16.3178 11.7478 16.2481 11.8169 16.1996 11.9003C16.1511 11.9838 16.1255 12.0786 16.1255 12.1751V17.8418C14.3101 18.5625 12.7283 19.7486 11.5272 21.2517V14.5318C11.5272 14.4361 11.5021 14.3421 11.4544 14.2591C11.4066 14.1761 11.3379 14.1071 11.2552 14.059C11.1724 14.0109 11.0785 13.9854 10.9827 13.985C10.887 13.9846 10.7928 14.0093 10.7097 14.0567L3.62428 18.094C3.5404 18.1417 3.47067 18.2109 3.42216 18.2943C3.37365 18.3778 3.3481 18.4726 3.34811 18.5691V36.4061C3.34811 36.5512 3.40572 36.6903 3.50828 36.7928C3.61084 36.8954 3.74994 36.953 3.89498 36.953H10.9804C11.1254 36.953 11.2645 36.8954 11.3671 36.7928C11.4696 36.6903 11.5272 36.5512 11.5272 36.4061V35.1076C13.5661 37.6591 16.7027 39.2968 20.2151 39.2968C23.7276 39.2968 26.8641 37.6591 28.903 35.1076V36.4061C28.903 36.5512 28.9606 36.6903 29.0631 36.7928C29.1657 36.8954 29.3048 36.953 29.4498 36.953H36.5352C36.6803 36.953 36.8194 36.8954 36.9219 36.7928C37.0245 36.6903 37.0821 36.5512 37.0821 36.4061V1.74395C37.0821 1.64821 37.0569 1.55415 37.0092 1.47118C36.9614 1.38821 36.8927 1.31923 36.8099 1.27114ZM17.2192 12.4929L23.2108 9.07879V17.4729C22.2356 17.1999 21.2277 17.0618 20.215 17.0624C19.2023 17.0618 18.1943 17.1999 17.2191 17.4729V12.4929H17.2192ZM10.4334 35.8593H4.44178V18.8868L10.4334 15.4728V22.9002C9.58186 24.4717 9.0978 26.2701 9.0978 28.1796C9.0978 30.089 9.58186 31.8875 10.4334 33.459V35.8593ZM20.2151 38.2031C14.6881 38.2031 10.1915 33.7065 10.1915 28.1796C10.1915 22.6526 14.6881 18.1561 20.2151 18.1561C25.742 18.1561 30.2385 22.6526 30.2385 28.1796C30.2385 33.7065 25.742 38.2031 20.2151 38.2031ZM35.9883 35.8593H29.9966V33.459C30.8482 31.8875 31.3322 30.0891 31.3322 28.1796C31.3322 26.27 30.8482 24.4717 29.9966 22.9002V6.09903L35.9883 2.68497V35.8593ZM20.2151 19.6651C15.5201 19.6651 11.7005 23.4847 11.7005 28.1796C11.7005 32.8746 15.5201 36.6941 20.2151 36.6941C24.91 36.6941 28.7296 32.8746 28.7296 28.1796C28.7296 23.4847 24.91 19.6651 20.2151 19.6651ZM20.2151 35.6004C16.1233 35.6004 12.7943 32.2715 12.7943 28.1796C12.7943 24.0878 16.1233 20.7589 20.2151 20.7589C24.3069 20.7589 27.6358 24.0878 27.6358 28.1796C27.6358 32.2715 24.3069 35.6004 20.2151 35.6004ZM22.904 30.1276C22.904 31.3091 21.9887 32.2986 20.7726 32.5342L20.7872 33.1361C20.7889 33.2079 20.7765 33.2794 20.7506 33.3464C20.7247 33.4134 20.6859 33.4746 20.6364 33.5266C20.5868 33.5786 20.5275 33.6203 20.4619 33.6494C20.3962 33.6785 20.3255 33.6943 20.2537 33.6961L20.2402 33.6962C20.0975 33.6962 19.9605 33.6403 19.8584 33.5406C19.7563 33.4409 19.6972 33.3052 19.6937 33.1625L19.6788 32.5429C18.9532 32.4158 18.4898 32.0334 18.0476 31.6161C17.9421 31.5166 17.8804 31.3792 17.8762 31.2342C17.872 31.0892 17.9255 30.9485 18.0251 30.843C18.1246 30.7375 18.262 30.6759 18.407 30.6716C18.552 30.6674 18.6927 30.721 18.7982 30.8205C19.3013 31.2951 19.6094 31.4936 20.2151 31.4936C21.0947 31.4936 21.8103 30.8807 21.8103 30.1276C21.8103 29.3743 21.0947 28.7616 20.2151 28.7616C18.7324 28.7616 17.5262 27.6582 17.5262 26.3019C17.5262 25.12 18.4422 24.13 19.659 23.895L19.643 23.2229C19.6395 23.0779 19.6938 22.9374 19.7939 22.8325C19.894 22.7275 20.0316 22.6666 20.1766 22.6631C20.4778 22.6561 20.7292 22.8948 20.7365 23.1968L20.7535 23.909C21.4132 24.055 22.2185 24.4339 22.5726 24.9726C22.6505 25.0938 22.6774 25.2409 22.6474 25.3818C22.6175 25.5228 22.5332 25.6462 22.4128 25.7253C22.2924 25.8044 22.1456 25.8328 22.0044 25.8043C21.8631 25.7759 21.7388 25.6928 21.6585 25.5732C21.4746 25.2932 20.6652 24.9359 20.2151 24.9359C19.3355 24.9359 18.6199 25.5487 18.6199 26.3018C18.6199 27.055 19.3355 27.6678 20.2151 27.6678C21.6977 27.6679 22.904 28.7713 22.904 30.1276ZM26.5423 3.14989L1.7249 16.5556C1.66172 16.5897 1.59243 16.6111 1.52098 16.6185C1.44954 16.6258 1.37734 16.6191 1.30852 16.5985C1.23969 16.578 1.17559 16.5441 1.11988 16.4987C1.06416 16.4534 1.01793 16.3975 0.983811 16.3343C0.949676 16.2712 0.928321 16.2019 0.920966 16.1304C0.913611 16.059 0.9204 15.9868 0.940945 15.918C0.96149 15.8492 0.995389 15.7851 1.04071 15.7293C1.08602 15.6736 1.14187 15.6274 1.20506 15.5932L25.8112 2.30176L23.556 1.78293C23.4158 1.74931 23.2945 1.66169 23.2186 1.53912C23.1426 1.41655 23.1182 1.26895 23.1505 1.12843C23.1828 0.987917 23.2693 0.865848 23.3912 0.788782C23.5131 0.711717 23.6604 0.685889 23.8012 0.716919L27.4691 1.56075C27.6104 1.59331 27.733 1.68065 27.81 1.80358C27.8869 1.92651 27.9119 2.07496 27.8794 2.21629L27.0355 5.88426C27.02 5.95479 26.9906 6.02153 26.9491 6.08063C26.9076 6.13973 26.8548 6.19003 26.7937 6.22862C26.7327 6.26721 26.6646 6.29332 26.5934 6.30545C26.5222 6.31758 26.4493 6.31549 26.3789 6.29929C26.3085 6.2831 26.242 6.25312 26.1833 6.2111C26.1246 6.16907 26.0747 6.11583 26.0367 6.05444C25.9986 5.99305 25.9731 5.92474 25.9616 5.85344C25.9501 5.78214 25.9529 5.70927 25.9697 5.63903L26.5423 3.14989Z" fill="#F57A03"/>
</svg>
