<svg width="38" height="36" viewBox="0 0 38 36" fill="none" xmlns="http://www.w3.org/2000/svg">
<path d="M36.9 18.5356L33.9106 13.5531C33.8106 13.4138 33.6769 13.3044 33.5081 13.2644L26.3425 11.7063C26.8564 10.6265 27.1237 9.44586 27.125 8.25C27.125 3.77 23.48 0.125 19 0.125C14.52 0.125 10.875 3.77 10.875 8.25C10.875 9.4875 11.1612 10.6562 11.6575 11.7063L4.49187 13.2644C4.32312 13.3044 4.18875 13.4144 4.08937 13.5531L1.1 18.5356C0.496872 19.4869 0.965622 20.8612 2.025 21.2456L4 22.0187V28.6469C4 29.4237 4.4675 30.1094 5.19187 30.3931L18.7725 35.7069C18.9188 35.7642 19.0812 35.7642 19.2275 35.7069L32.8087 30.3931C33.1607 30.2569 33.4631 30.017 33.6758 29.7051C33.8885 29.3933 34.0015 29.0243 34 28.6469V22.0187L35.975 21.2456C37.0344 20.8612 37.5031 19.4869 36.9 18.5356ZM19 1.375C22.7906 1.375 25.875 4.45937 25.875 8.25C25.875 12.0406 22.7906 15.125 19 15.125C15.2094 15.125 12.125 12.0406 12.125 8.25C12.125 4.45937 15.2094 1.375 19 1.375ZM12.3062 12.845C13.7719 14.9744 16.225 16.375 19 16.375C21.775 16.375 24.2275 14.975 25.6937 12.845L31.2219 14.0463L19 18.8287L6.77812 14.0463L12.3056 12.845H12.3062ZM2.47937 20.0825C2.12687 19.955 1.96875 19.495 2.17125 19.1781L4.88875 14.6494L18.0825 19.8125L15.2575 24.5225C15.1816 24.6494 15.0631 24.7453 14.9231 24.793C14.7831 24.8408 14.6308 24.8372 14.4931 24.7831L2.47937 20.0825ZM18.375 34.2088L5.6475 29.2281C5.53016 29.1827 5.42934 29.1028 5.35837 28.9989C5.2874 28.895 5.24961 28.7721 5.25 28.6462V22.5075L14.0387 25.9462C14.8762 26.2787 15.8562 25.9587 16.3294 25.165L18.375 21.7563V34.2088ZM32.75 28.6462C32.75 28.905 32.5937 29.1337 32.3531 29.2281L19.625 34.2094V21.7563L21.6706 25.1656C21.8982 25.5458 22.2533 25.833 22.6728 25.976C23.0922 26.1191 23.5487 26.1088 23.9612 25.9469L32.75 22.5081V28.6462ZM35.52 20.0812L23.5062 24.7831C23.3687 24.8371 23.2165 24.8405 23.0766 24.7928C22.9368 24.7451 22.8184 24.6493 22.7425 24.5225L19.9162 19.8125L33.1106 14.65L35.8281 19.1781C36.0306 19.4956 35.8719 19.9544 35.52 20.0812ZM17.235 10.0525C16.545 9.53875 15.8687 10.6331 16.5456 11.1025C17.145 11.6225 17.7469 11.8438 18.5075 11.9062V12.5125C18.475 13.36 19.8075 13.35 19.78 12.5125V11.8525C20.825 11.6488 21.7675 10.8569 21.7419 9.72375C21.7419 9.36312 21.6887 9.0575 21.5825 8.80688C21.2844 8.07938 20.5237 7.80375 19.78 7.62375V5.67375C20.0869 5.765 20.4662 5.92438 20.6806 6.11875C20.9006 6.28375 21.2062 6.22625 21.3912 6.02313C21.6844 5.715 21.6081 5.30063 21.2644 5.03688C20.9075 4.72438 20.3081 4.465 19.78 4.37937V3.9875C19.7862 3.63 19.5187 3.33313 19.155 3.34063C19.0695 3.33866 18.9845 3.35405 18.9051 3.38585C18.8256 3.41766 18.7535 3.46523 18.693 3.52568C18.6325 3.58614 18.5848 3.65823 18.553 3.7376C18.5211 3.81697 18.5056 3.90198 18.5075 3.9875V4.3525C18.22 4.39187 17.9444 4.45312 17.6906 4.56C16.8825 4.90188 16.3669 5.575 16.3762 6.47875C16.3237 7.71313 17.3637 8.45375 18.5075 8.60375V10.6806C18.0012 10.5988 17.6575 10.385 17.235 10.0525ZM19.78 8.92312C20.1925 9.10375 20.4687 9.34812 20.4694 9.79812C20.4694 9.975 20.4019 10.1319 20.2675 10.27C20.1425 10.3981 19.9775 10.4988 19.78 10.5781V8.92312ZM18.3481 7.27938C17.92 7.12563 17.6281 6.8875 17.6275 6.42625C17.62 5.94687 18.05 5.65125 18.5075 5.57875V7.3275C18.455 7.31125 18.3962 7.29563 18.3481 7.27938Z" fill="#F79535"/>
</svg>
